HIERARCHY
ROOT Hips
{
  OFFSET 54.9823 86.2724 17.1856
  CHANNELS 6 Xposition Yposition Zposition Zrotation Xrotation Yrotation
  JOINT spine
  {
    OFFSET 0 6.84637 0.3937
    CHANNELS 3 Zrotation Xrotation Yrotation
    JOINT spine1
    {
      OFFSET 0 9.49621 0
      CHANNELS 3 Zrotation Xrotation Yrotation
      JOINT spine2
      {
        OFFSET 0 9.09909 0
        CHANNELS 3 Zrotation Xrotation Yrotation
        JOINT Neck
        {
          OFFSET 0 23.3612 1.11378
          CHANNELS 3 Zrotation Xrotation Yrotation
          JOINT Head
          {
            OFFSET 0 7.05802 0
            CHANNELS 3 Zrotation Xrotation Yrotation
            End Site
            {
              OFFSET 0 17.0844 -5.63419
            }
          }
        }
        JOINT RightShoulder
        {
          OFFSET -3.83136 9.82631 -0.533491
          CHANNELS 3 Zrotation Xrotation Yrotation
          JOINT RightArm
          {
            OFFSET 0 12.8881 0
            CHANNELS 3 Zrotation Xrotation Yrotation
            JOINT RightArmRoll
            {
              OFFSET 0 6.50617 0
              CHANNELS 3 Zrotation Xrotation Yrotation
              JOINT RightForeArm
              {
                OFFSET 0 18.9501 0
                CHANNELS 3 Zrotation Xrotation Yrotation
                JOINT RightForeArmRoll
                {
                  OFFSET 0 7.30093 0
                  CHANNELS 3 Zrotation Xrotation Yrotation
                  JOINT RightHand
                  {
                    OFFSET 0 14.6514 0
                    CHANNELS 3 Zrotation Xrotation Yrotation
                    End Site
                    {
                      OFFSET 0 0 0
                    }
                  }
                }
              }
            }
          }
        }
        JOINT LeftShoulder
        {
          OFFSET 3.83136 9.82631 -0.533491
          CHANNELS 3 Zrotation Xrotation Yrotation
          JOINT LeftArm
          {
            OFFSET 0 12.8881 0
            CHANNELS 3 Zrotation Xrotation Yrotation
            JOINT LeftArmRoll
            {
              OFFSET 0 6.50617 0
              CHANNELS 3 Zrotation Xrotation Yrotation
              JOINT LeftForeArm
              {
                OFFSET 0 18.9501 0
                CHANNELS 3 Zrotation Xrotation Yrotation
                JOINT LeftForeArmRoll
                {
                  OFFSET 0 7.30092 0
                  CHANNELS 3 Zrotation Xrotation Yrotation
                  JOINT LeftHand
                  {
                    OFFSET 0 14.6514 0
                    CHANNELS 3 Zrotation Xrotation Yrotation
                    End Site
                    {
                      OFFSET 0 0 0
                    }
                  }
                }
              }
            }
          }
        }
      }
    }
  }
  JOINT RightUpLeg
  {
    OFFSET -6.06837 -1.11278 -0.933477
    CHANNELS 3 Zrotation Xrotation Yrotation
    JOINT RightUpLegRoll
    {
      OFFSET 0 17.1796 0
      CHANNELS 3 Zrotation Xrotation Yrotation
      JOINT RightLeg
      {
        OFFSET 0 -21.2743 0
        CHANNELS 3 Zrotation Xrotation Yrotation
        JOINT RightLegRoll
        {
          OFFSET 0 21.3439 0
          CHANNELS 3 Zrotation Xrotation Yrotation
          JOINT RightFoot
          {
            OFFSET 0 17.7652 0
            CHANNELS 3 Zrotation Xrotation Yrotation
            JOINT RightToeBase
            {
              OFFSET 0 14.8508 0
              CHANNELS 3 Zrotation Xrotation Yrotation
              End Site
              {
                OFFSET 0.0062947 7.19214 -0.829004
              }
            }
          }
        }
      }
    }
  }
  JOINT LeftUpLeg
  {
    OFFSET 6.06837 -1.11278 -0.933477
    CHANNELS 3 Zrotation Xrotation Yrotation
    JOINT LeftUpLegRoll
    {
      OFFSET 0 17.1797 0
      CHANNELS 3 Zrotation Xrotation Yrotation
      JOINT LeftLeg
      {
        OFFSET 0 21.2742 0
        CHANNELS 3 Zrotation Xrotation Yrotation
        JOINT LeftLegRoll
        {
          OFFSET 0 21.5412 0
          CHANNELS 3 Zrotation Xrotation Yrotation
          JOINT LeftFoot
          {
            OFFSET 0 17.5679 0
            CHANNELS 3 Zrotation Xrotation Yrotation
            JOINT LeftToeBase
            {
              OFFSET 0 14.8508 0
              CHANNELS 3 Zrotation Xrotation Yrotation
              End Site
              {
                OFFSET -0.0282102 7.19214 -0.829005
              }
            }
          }
        }
      }
    }
  }
}
MOTION
Frames: 9
Frame Time: 0.00208333
52.2298 86.5829 7.94393 1.18596 -2.59483 -2.7875 1.22711 -1.52281 1.10591 2.4639 0.978628 2.06882 2.44063 2.62238 2.02854 -17.8805 9.90445 -0.907213 11.8823 9.12264 -5.78327 51.6708 -8.14885 -4.85019 99.4268 15.8256 28.4991 7.79705e-008 3.48043e-007 -3.42476e-006 10.4495 5.66484 -1.17872 -9.86611e-006 6.38615e-007 -3.00688 8.02891 -4.95145 0.697676 -73.1036 -7.34717 5.0137 -93.64 23.2114 -30.1776 5.22341e-006 -3.22024e-006 9.08842e-006 -11.875 7.72327 0.383099 1.53317e-005 -9.01268e-007 3.00794 -8.02889 -4.95141 -0.697695 177.84 14.2614 -1.2527 180 7.01533e-015 178.862 176.779 25.3999 -179.924 6.60157e-006 1.73317e-006 0.631714 -23.4755 71.8134 23.5014 8.12923 25.2331 -3.48464 179.805 10.5507 1.50033 4.54188e-006 -4.6773e-006 -1.14934 -1.61686 -24.631 0.424527 2.21457e-006 -1.97484e-007 -0.690085 25.2025 74.5587 -27.1599 -8.13649 25.2327 3.48774 
52.2395 86.5768 7.92609 1.18693 -2.59265 -2.78315 1.22711 -1.52435 1.10542 2.46554 0.975589 2.07045 2.44226 2.61934 2.03015 -17.8904 9.86839 -0.907538 11.8835 9.12425 -5.78112 51.6623 -8.14663 -4.84835 99.4511 15.8959 28.4525 7.79705e-008 3.48043e-007 -3.42476e-006 10.4612 5.67589 -1.17994 -9.86611e-006 6.38615e-007 -3.00688 8.02891 -4.95145 0.697676 -73.1044 -7.3469 5.01361 -93.6561 23.2572 -30.137 5.22341e-006 -3.22024e-006 9.08842e-006 -11.8911 7.74544 0.38884 1.53317e-005 -9.01268e-007 3.00794 -8.02889 -4.95141 -0.697695 177.838 14.2626 -1.25022 180 7.01533e-015 178.862 176.776 25.4035 -179.922 6.60157e-006 1.73317e-006 0.631714 -23.4827 71.8172 23.5066 8.12923 25.2331 -3.48464 179.794 10.5481 1.51842 4.54188e-006 -4.6773e-006 -1.14936 -1.60441 -24.6289 0.428678 2.21457e-006 -1.97484e-007 -0.691756 25.198 74.5615 -27.16 -8.13649 25.2327 3.48774 
52.236 86.5798 7.92897 1.18778 -2.59059 -2.77888 1.22707 -1.5259 1.10485 2.4672 0.972521 2.0721 2.44389 2.61627 2.03177 -17.9 9.83203 -0.907908 11.8844 9.12613 -5.77893 51.6538 -8.14454 -4.8466 99.4757 15.9667 28.4058 7.79705e-008 3.48043e-007 -3.42476e-006 10.4728 5.68697 -1.18117 -9.86611e-006 6.38615e-007 -3.00688 8.02891 -4.95145 0.697676 -73.1047 -7.34661 5.01349 -93.6729 23.3032 -30.0962 5.22341e-006 -3.22024e-006 9.08842e-006 -11.9072 7.76795 0.39465 1.53317e-005 -9.01268e-007 3.00794 -8.02889 -4.95141 -0.697695 177.837 14.2636 -1.24779 180 -7.01532e-015 178.862 176.774 25.4072 -179.921 6.60157e-006 1.73317e-006 0.631714 -23.4901 71.821 23.5119 8.12923 25.2331 -3.48464 179.783 10.545 1.53694 4.54188e-006 -4.6773e-006 -1.14937 -1.5915 -24.6266 0.43299 2.21457e-006 -1.97484e-007 -0.693484 25.1933 74.5644 -27.1602 -8.13649 25.2327 3.48774 
52.2429 86.5747 7.94266 1.18853 -2.58861 -2.77469 1.227 -1.52746 1.10423 2.46886 0.969432 2.07376 2.44553 2.61318 2.0334 -17.9094 9.79545 -0.908309 11.885 9.12817 -5.7767 51.6452 -8.14255 -4.84493 99.5004 16.0378 28.3591 7.79705e-008 3.48043e-007 -3.42476e-006 10.4844 5.69807 -1.18239 -9.86611e-006 6.38615e-007 -3.00688 8.02891 -4.95145 0.697676 -73.1048 -7.3463 5.01335 -93.6901 23.3495 -30.0553 5.22341e-006 -3.22024e-006 9.08842e-006 -11.9233 7.79069 0.400509 1.53317e-005 -9.01268e-007 3.00794 -8.02889 -4.95141 -0.697695 177.835 14.2644 -1.24538 180 7.01532e-015 178.862 176.771 25.4108 -179.92 6.60157e-006 1.73317e-006 0.631714 -23.4978 71.8249 23.5173 8.12923 25.2331 -3.48464 179.771 10.5417 1.55576 4.54188e-006 -4.6773e-006 -1.14938 -1.57828 -24.6243 0.437414 2.21457e-006 -1.97484e-007 -0.695252 25.1884 74.5675 -27.1603 -8.13649 25.2327 3.48774 
52.2455 86.5747 7.94013 1.18924 -2.58668 -2.77052 1.22691 -1.52902 1.10358 2.47052 0.966332 2.07542 2.44717 2.61008 2.03503 -17.9186 9.75875 -0.908729 11.8856 9.13032 -5.77446 51.6365 -8.14061 -4.84329 99.5254 16.1093 28.3124 7.79705e-008 3.48043e-007 -3.42476e-006 10.496 5.70918 -1.18361 -9.86611e-006 6.38615e-007 -3.00688 8.02891 -4.95145 0.697676 -73.1046 -7.34599 5.0132 -93.7076 23.396 -30.0143 5.22341e-006 -3.22024e-006 9.08842e-006 -11.9394 7.81357 0.406397 1.53317e-005 -9.01268e-007 3.00794 -8.02889 -4.95141 -0.697695 177.834 14.2651 -1.24298 180 7.01532e-015 178.862 176.768 25.4144 -179.918 6.60157e-006 1.73317e-006 0.631714 -23.5055 71.8288 23.5228 8.12923 25.2331 -3.48464 179.76 10.5382 1.57476 4.54188e-006 -4.6773e-006 -1.14937 -1.56487 -24.6219 0.441902 2.21457e-006 -1.97484e-007 -0.697043 25.1834 74.5706 -27.1605 -8.13649 25.2327 3.48774 
52.2368 86.5757 7.96225 1.18994 -2.58476 -2.76637 1.22683 -1.53059 1.10292 2.47219 0.963229 2.07709 2.44882 2.60697 2.03667 -17.9279 9.72203 -0.909153 11.8861 9.13249 -5.77221 51.6279 -8.13869 -4.84166 99.5504 16.1808 28.2657 7.79705e-008 3.48043e-007 -3.42476e-006 10.5076 5.7203 -1.18483 -9.86611e-006 6.38615e-007 -3.00688 8.02891 -4.95145 0.697676 -73.1044 -7.34567 5.01305 -93.7252 23.4425 -29.9732 5.22341e-006 -3.22024e-006 9.08842e-006 -11.9555 7.83648 0.412293 1.53317e-005 -9.01268e-007 3.00794 -8.02889 -4.95141 -0.697695 177.833 14.2659 -1.24059 180 7.01532e-015 178.862 176.765 25.418 -179.917 6.60157e-006 1.73317e-006 0.631714 -23.5133 71.8326 23.5282 8.12923 25.2331 -3.48464 179.748 10.5347 1.59379 4.54188e-006 -4.6773e-006 -1.14937 -1.55142 -24.6195 0.446406 2.21457e-006 -1.97484e-007 -0.69884 25.1784 74.5738 -27.1606 -8.13649 25.2327 3.48774 
52.2415 86.5759 7.96056 1.19066 -2.58281 -2.7622 1.22674 -1.53216 1.10228 2.47386 0.960131 2.07875 2.45046 2.60387 2.03831 -17.9372 9.68536 -0.909569 11.8866 9.13462 -5.76997 51.6192 -8.13674 -4.84001 99.5755 16.2523 28.219 7.79705e-008 3.48043e-007 -3.42476e-006 10.5192 5.7314 -1.18605 -9.86611e-006 6.38615e-007 -3.00688 8.02891 -4.95145 0.697676 -73.1043 -7.34536 5.0129 -93.7427 23.4889 -29.9322 5.22341e-006 -3.22024e-006 9.08842e-006 -11.9716 7.85932 0.418176 1.53317e-005 -9.01268e-007 3.00794 -8.02889 -4.95141 -0.697695 177.831 14.2666 -1.23819 180 7.01532e-015 178.862 176.762 25.4216 -179.915 6.60157e-006 1.73317e-006 0.631714 -23.521 71.8365 23.5336 8.12923 25.2331 -3.48464 179.737 10.5312 1.61274 4.54188e-006 -4.6773e-006 -1.14937 -1.53806 -24.6172 0.450878 2.21457e-006 -1.97484e-007 -0.700626 25.1735 74.5769 -27.1608 -8.13649 25.2327 3.48774 
52.2506 86.5749 7.947 1.19144 -2.58081 -2.75798 1.22668 -1.53372 1.10167 2.47552 0.957049 2.08041 2.4521 2.60079 2.03993 -17.9467 9.64885 -0.909962 11.8874 9.13661 -5.76776 51.6107 -8.13473 -4.83831 99.6007 16.3235 28.1724 7.79705e-008 3.48043e-007 -3.42476e-006 10.5308 5.7425 -1.18727 -9.86611e-006 6.38615e-007 -3.00688 8.02891 -4.95145 0.697676 -73.1044 -7.34506 5.01277 -93.7601 23.5352 -29.8912 5.22341e-006 -3.22024e-006 9.08842e-006 -11.9877 7.882 0.424024 1.53317e-005 -9.01268e-007 3.00794 -8.02889 -4.95141 -0.697695 177.83 14.2675 -1.23577 180 7.01532e-015 178.861 176.759 25.4253 -179.914 6.60157e-006 1.73317e-006 0.631714 -23.5286 71.8404 23.539 8.12923 25.2331 -3.48464 179.725 10.528 1.63147 4.54188e-006 -4.6773e-006 -1.14937 -1.52493 -24.6148 0.45527 2.21457e-006 -1.97484e-007 -0.702383 25.1686 74.58 -27.1609 -8.13649 25.2327 3.48774 
52.2533 86.5808 7.95874 1.19232 -2.57871 -2.75369 1.22665 -1.53526 1.10112 2.47717 0.953989 2.08205 2.45373 2.59773 2.04155 -17.9563 9.61258 -0.910321 11.8884 9.13841 -5.76558 51.6021 -8.1326 -4.83654 99.6259 16.3945 28.1258 7.79705e-008 3.48043e-007 -3.42476e-006 10.5424 5.75357 -1.18849 -9.86611e-006 6.38615e-007 -3.00688 8.02891 -4.95145 0.697676 -73.1049 -7.34477 5.01265 -93.7771 23.5813 -29.8505 5.22341e-006 -3.22024e-006 9.08842e-006 -12.0038 7.90441 0.429818 1.53317e-005 -9.01268e-007 3.00794 -8.02889 -4.95141 -0.697695 177.828 14.2685 -1.23333 180 7.01532e-015 178.861 176.756 25.4289 -179.912 6.60157e-006 1.73317e-006 0.631714 -23.536 71.8442 23.5443 8.12923 25.2331 -3.48464 179.714 10.5251 1.64986 4.54188e-006 -4.6773e-006 -1.14939 -1.51216 -24.6126 0.459532 2.21457e-006 -1.97484e-007 -0.704093 25.164 74.5828 -27.161 -8.13649 25.2327 3.48774 
